<?xml version="1.0" encoding="iso-8859-1"?>
<!-- Generator: Adobe Illustrator 18.1.1, SVG Export Plug-In . SVG Version: 6.00 Build 0)  -->
<svg xmlns="http://www.w3.org/2000/svg" xmlns:xlink="http://www.w3.org/1999/xlink" version="1.1" id="Capa_1" x="0px" y="0px" viewBox="0 0 32 32" style="enable-background:new 0 0 32 32;" xml:space="preserve" width="512px" height="512px">
<g>
	<g id="loop_x5F_alt2">
		<g>
			<path d="M19.945,22l6.008-8L32,22h-4v2c0,3.309-2.691,6-6,6H10c-3.309,0-6-2.691-6-6v-2h4v2     c0,1.102,0.898,2,2,2h12c1.102,0,2-0.898,2-2v-2H19.945z" fill="#6ab5b2"/>
			<path d="M12.055,10l-6.008,8L0,10h4V8c0-3.309,2.691-6,6-6h12c3.309,0,6,2.691,6,6v2h-4V8     c0-1.102-0.898-2-2-2H10C8.898,6,8,6.898,8,8v2H12.055z" fill="#6ab5b2"/>
		</g>
	</g>
</g>
<g>
</g>
<g>
</g>
<g>
</g>
<g>
</g>
<g>
</g>
<g>
</g>
<g>
</g>
<g>
</g>
<g>
</g>
<g>
</g>
<g>
</g>
<g>
</g>
<g>
</g>
<g>
</g>
<g>
</g>
</svg>
